<?xml version="1.0" encoding="utf-8"?>
<!-- Generator: Adobe Illustrator 23.0.2, SVG Export Plug-In . SVG Version: 6.00 Build 0)  -->
<svg version="1.1" id="Réteg_1" xmlns="http://www.w3.org/2000/svg" xmlns:xlink="http://www.w3.org/1999/xlink" x="0px" y="0px"
	 viewBox="0 0 70.9 70.9" style="enable-background:new 0 0 70.9 70.9;" xml:space="preserve">
<g>
	<path d="M0,34.5c0.1-0.2,0.2-0.4,0.3-0.6c0.7-2,2.5-3.3,4.6-3.4c2.1,0,4,1.3,4.7,3.2c0.2,0.5,0.4,0.7,0.9,0.6c1-0.1,2,0,3,0
		c0.2-1.2,0.4-2.4,0.6-3.6c0.1-0.6,0.3-1.2,0.5-1.8c0.2-0.7,0.7-1,1.3-0.8c0.6,0.2,0.9,0.7,0.7,1.4c-0.6,2.1-0.9,4.3-0.9,6.5
		c0.3,6.1,2.8,11.1,7.6,14.9c4,3.2,8.6,4.5,13.7,4.2c8.6-0.5,16.2-7.1,18-15.6c2.3-11.1-4.6-21.5-15.6-23.7
		c-8.1-1.6-16.6,2.2-20.9,9.4c-0.6,1-1.1,1.2-1.7,0.9c-0.6-0.4-0.7-1-0.1-1.9c0.8-1.2,1.7-2.5,2.5-3.6c-1.5-1.5-3.1-3.1-4.6-4.6
		c-4.4,3-9.2,1.3-11.4-1.7C0.6,11.1,1,6.5,3.9,3.7c3-2.9,7.5-3.1,10.7-0.5c3.1,2.5,4.2,7.2,1.3,11.4c1.5,1.5,3.1,3,4.7,4.6
		c3.9-3.5,8.5-5.4,13.7-5.7c0-1.2,0-2.3,0-3.5c0-0.1-0.3-0.3-0.5-0.4c-2.1-0.8-3.5-2.8-3.3-4.9c0.1-2.2,1.7-4.1,3.9-4.6
		c2.5-0.6,5,0.9,5.8,3.3c0.8,2.5-0.5,5.2-3,6.1c-0.6,0.2-0.7,0.5-0.7,1c0,1,0,1.9,0,2.9c5.2,0.3,9.8,2.2,13.6,5.6
		c1.6-1.6,3.1-3.1,4.6-4.6c-0.4-1-1-2.1-1.2-3.2c-1.1-4.5,2.1-9.1,6.8-9.7c4.8-0.6,9,2.8,9.2,7.6c0.2,2.9-1,5.2-3.3,7
		c-0.7,0.5-1.3,0.5-1.7-0.1c-0.4-0.5-0.3-1.1,0.4-1.6c2.4-1.9,3.1-4.9,1.8-7.5c-1.3-2.6-4.2-3.9-7-3.1c-2.5,0.7-4.6,3.1-4.4,6.3
		c0.2,2.6,2.4,5,5.1,5.4c0.3,0,0.6,0,0.8,0.1c0.7,0.1,1.2,0.5,1.1,1.2c0,0.6-0.6,1-1.3,1c-1.6-0.1-3-0.5-4.3-1.4
		c-0.1-0.1-0.2-0.1-0.3-0.2c-1.6,1.6-3.1,3.1-4.7,4.7c3.4,3.8,5.3,8.3,5.6,13.6c1.2,0,2.4,0,3.6,0c0.1,0,0.3-0.3,0.3-0.5
		c0.8-2.1,2.8-3.5,4.9-3.3c2.2,0.1,4.1,1.7,4.6,3.9c0.6,2.5-0.9,5.1-3.4,5.8c-2.5,0.7-5.1-0.5-6-3c-0.2-0.5-0.4-0.7-1-0.7
		c-1,0-2,0-3,0c-0.3,5.2-2.2,9.8-5.6,13.6c1.6,1.6,3.1,3.1,4.7,4.7c2-1.5,4.3-2,6.9-1.3c1.9,0.5,3.5,1.6,4.6,3.2
		c2.3,3.2,1.9,7.7-0.9,10.5c-3,2.9-7.5,3.1-10.7,0.6c-2.9-2.3-4.5-7-1.5-11.3c-1.6-1.6-3.1-3.1-4.7-4.7c-3.8,3.4-8.3,5.3-13.6,5.6
		c0,1.2,0,2.3,0,3.5c0,0.1,0.2,0.3,0.3,0.4c2.2,0.6,3.6,2.7,3.6,4.9c-0.1,2.3-1.4,3.9-3.9,4.7c0,0-0.1,0.1-0.1,0.1
		c-0.6,0-1.3,0-1.9,0c0,0-0.1-0.1-0.1-0.1c-2.5-0.8-3.8-2.4-3.9-4.7c-0.1-2.2,1.4-4.2,3.6-4.9c0.1,0,0.3-0.2,0.3-0.4
		c0-1.1,0-2.3,0-3.5c-5.2-0.3-9.8-2.2-13.6-5.6c-1.6,1.6-3.1,3.1-4.7,4.7c0,0,0,0,0,0c0.1,0.1,0.1,0.2,0.2,0.3
		c1.3,2,1.7,4.1,1.2,6.5c-0.5,2-1.6,3.6-3.3,4.8c-0.5,0.4-1.2,0.3-1.5-0.2c-0.3-0.5-0.2-1,0.3-1.5c0.1-0.1,0.2-0.2,0.3-0.2
		c2.1-1.6,2.9-4.3,2-6.7c-0.8-2.5-3.1-4-5.8-4c-2.9,0-5.5,2.3-5.8,5.1c-0.4,3.2,1.5,6,4.5,6.7c0.5,0.1,1.1,0.1,1.6,0.2
		c0.5,0.1,0.8,0.5,0.8,1c0,0.5-0.3,0.9-0.8,1.1c-0.2,0.1-0.5,0-0.8,0C4.2,69,0.9,65,1.5,60.2c0.6-4.6,5.2-7.8,9.7-6.8
		c1.2,0.3,2.2,0.8,3.3,1.2c1.5-1.5,3-3,4.6-4.6c-3.4-3.8-5.3-8.3-5.6-13.6c-1.1,0-2,0-3,0c-0.5,0-0.7,0.2-0.9,0.6
		c-0.7,2-2.6,3.3-4.7,3.2c-2.1,0-3.9-1.4-4.6-3.4c-0.1-0.2-0.2-0.4-0.3-0.6C0,35.8,0,35.1,0,34.5z M3.6,9.6c0,3.4,2.7,6,6,6
		c3.3,0,5.9-2.6,6-6c0-3.4-2.6-6-6-6C6.2,3.6,3.5,6.2,3.6,9.6z M61.3,67.3c3.4,0,6-2.6,6-6c0-3.3-2.6-6-5.9-6c-3.4,0-6,2.6-6,5.9
		C55.3,64.7,57.9,67.3,61.3,67.3z M38.2,4.9c0-1.6-1.3-2.9-2.8-2.8c-1.6,0-2.8,1.3-2.8,2.8c0,1.6,1.2,2.8,2.8,2.8
		C37,7.8,38.2,6.5,38.2,4.9z M5,38.3c1.6,0,2.8-1.3,2.8-2.9c0-1.5-1.3-2.8-2.9-2.7c-1.6,0-2.8,1.3-2.8,2.8C2.1,37,3.4,38.3,5,38.3z
		 M65.9,38.3c1.6,0,2.8-1.2,2.8-2.8c0-1.6-1.3-2.8-2.9-2.8c-1.6,0-2.8,1.3-2.8,2.9C63.1,37,64.4,38.3,65.9,38.3z M35.5,63.1
		c-1.6,0-2.8,1.2-2.8,2.8c0,1.6,1.2,2.8,2.8,2.8c1.6,0,2.8-1.3,2.8-2.9C38.2,64.4,37,63.1,35.5,63.1z"/>
	<path d="M30.2,39.9c0,1.8,0,3.6,0,5.5c0,0.5-0.1,1-0.2,1.4c-0.5,1.5-2,2.3-3.6,2.1c-1.4-0.2-2.6-1.6-2.6-3.1c0-2,0-4.1,0-6.1
		c0-0.4-0.1-0.7-0.5-0.9c-1-0.6-1.5-1.5-1.5-2.7c0-1.6,0-3.1,0-4.7c0-1.8,1.2-3.1,3.1-3.2c0.1,0,0.1,0,0.2,0c2.9,0.4,5.5-0.5,8-1.7
		c2-0.9,4.1-1.7,6.2-2.6c0.3-0.1,0.5-0.4,0.7-0.7c0.6-1.6,2.1-2.5,3.9-2.2c1.5,0.2,2.7,1.6,2.8,3.2c0,1.1,0,2.3,0,3.4
		c0,0.4,0.1,0.6,0.5,0.7c2.4,0.9,3.9,3,3.9,5.5c0,2.4-1.5,4.5-3.9,5.5c-0.3,0.1-0.4,0.3-0.4,0.7c0,1.1,0,2.2,0,3.3
		c0,1.8-1.2,3.2-2.7,3.4c-1.8,0.3-3.3-0.6-3.9-2.3c-0.1-0.2-0.2-0.4-0.4-0.5c-3-1.3-6-2.5-9-3.8C30.4,39.9,30.3,39.9,30.2,39.9z
		 M39.7,26.1c-0.1,0-0.2,0-0.2,0c-3,1.2-5.9,2.5-8.9,3.7c-0.2,0.1-0.4,0.4-0.4,0.7c0,2.2,0,4.3,0,6.5c0,0.4,0.1,0.6,0.5,0.8
		c1.7,0.7,3.5,1.4,5.2,2.2c1.2,0.5,2.5,1,3.8,1.6C39.7,36.3,39.7,31.2,39.7,26.1z M44.4,33.8c0-3.1,0-6.1,0-9.2c0-1-0.5-1.6-1.3-1.6
		c-0.8,0-1.3,0.6-1.3,1.6c0,6.1,0,12.2,0,18.3c0,1,0.5,1.6,1.3,1.6c0.8,0,1.3-0.6,1.3-1.6C44.4,39.8,44.4,36.8,44.4,33.8z M28,37.1
		c0-2.3,0-4.5,0-6.8c-1.1,0-2.2,0-3.3,0c-0.5,0-0.8,0.3-0.8,0.9c0,1.7,0,3.4,0,5c0,0.6,0.3,0.9,0.9,0.9C25.8,37.1,26.9,37.1,28,37.1
		z M28,39.3c-0.8,0-1.5,0-2.2,0c0,2.2,0,4.3,0,6.4c0,0.6,0.5,1,1.1,1c0.6,0,1.1-0.4,1.1-1.1c0-0.8,0-1.6,0-2.4
		C28,42,28,40.7,28,39.3z M46.6,37c1.5-0.6,2.4-2.1,2.2-3.8c-0.1-1.3-1.2-2.6-2.2-2.7C46.6,32.6,46.6,34.8,46.6,37z"/>
</g>
</svg>
