<?xml version="1.0" encoding="utf-8"?>
<!-- Generator: Adobe Illustrator 23.0.2, SVG Export Plug-In . SVG Version: 6.00 Build 0)  -->
<svg version="1.1" id="Réteg_1" xmlns="http://www.w3.org/2000/svg" xmlns:xlink="http://www.w3.org/1999/xlink" x="0px" y="0px"
	 viewBox="0 0 70.9 70.9" style="enable-background:new 0 0 70.9 70.9;" xml:space="preserve">
<g>
	<path d="M16.5,70.9c-0.3-0.3-0.6-0.5-0.8-0.8c-0.4-0.9,0.2-1.9,1.3-1.9c1.4,0,2.9,0,4.3,0c0-0.6,0-1.1,0.1-1.6
		c0.4-2,2.1-3.4,4.2-3.5c1.1,0,2.3,0,3.4,0c0.5-2.3,1.1-4.5,1.6-6.8c-0.3,0-0.6,0-0.9,0c-6.8,0-13.7,0-20.5,0c-2.8,0-5-1.6-5.7-4.2
		c-0.2-0.6-0.2-1.2-0.2-1.8c0-11.6,0-23.2,0-34.8c0-3.7,2.4-6.1,6.1-6.1c12,0,24.1,0,36.1,0c0.7,0,1.1-0.2,1.5-0.8
		c1.3-2,2.6-3.9,3.9-5.9c1.4-2,3.5-2.9,5.9-2.4c2.6,0.4,4.3,2.1,4.9,4.6C62.1,6.1,62,7,61.2,9.2c0.2,0,0.5,0,0.7,0
		c3.4,0.2,5.7,2.5,5.7,5.9c0,5.6,0,11.3,0,16.9c0,6.1,0,12.2,0,18.3c0,2.8-1.7,5-4.2,5.7c-0.6,0.1-1.2,0.2-1.8,0.2
		c-6.8,0-13.5,0-20.3,0c-0.3,0-0.5,0-0.9,0c0.5,2.3,1.1,4.5,1.6,6.8c1.2,0,2.3,0,3.4,0c2.1,0,3.8,1.4,4.2,3.4
		c0.1,0.5,0.1,1.1,0.1,1.7c1,0,2,0,3.1,0c0.4,0,0.8,0,1.2,0c0.7,0,1.2,0.3,1.4,1c0.2,0.7-0.1,1.2-0.6,1.6c-0.1,0.1-0.2,0.1-0.3,0.2
		C41.8,70.9,29.1,70.9,16.5,70.9z M44.6,12c-0.4,0-0.6,0-0.9,0c-11.4,0-22.9,0-34.3,0c-1.9,0-3.3,1.2-3.2,3.2c0.1,8.4,0,16.8,0,25.3
		c0,0.2,0,0.5,0,0.8c1,0,1.8,0,2.7,0c0.5,0,1,0,1.4,0c0.7,0.1,1.2,0.7,1.2,1.4c0,0.7-0.5,1.3-1.2,1.4c-0.4,0.1-0.8,0-1.2,0
		c-1,0-1.9,0-2.9,0c0,2.4-0.1,4.6,0,6.9c0,0.6,0.5,1.2,0.9,1.7c0.6,0.7,1.5,0.7,2.3,0.7c17.3,0,34.6,0,51.9,0c0.3,0,0.6,0,1-0.1
		c1.2-0.2,2.2-1.2,2.3-2.3c0.1-2.2,0-4.5,0-6.7c0,0-0.1-0.1-0.1-0.1c-0.3,0-0.6,0-0.9,0c-13.9,0-27.8,0-41.7,0c-0.3,0-0.7,0-1-0.1
		c-0.6-0.1-1-0.6-1-1.2c-0.1-0.7,0.3-1.2,0.9-1.4c0.3-0.1,0.7-0.1,1.1-0.1c14,0,28,0,42,0c0.3,0,0.6,0,0.9,0c0-0.3,0-0.5,0-0.7
		c0-8.4,0-16.9,0-25.3c0-0.2,0-0.3,0-0.5c-0.1-1.6-1.2-2.7-2.8-2.7c-0.8,0-1.6,0-2.4,0c-0.5,0-0.8,0.1-1.2,0.5
		c-3.8,4.6-7.6,9.2-11.4,13.8c-0.6,0.7-1,1.3-0.6,2.2c0.1,0.3,0.1,0.6,0.1,1c0.2,3.7-2,6.6-5,7.1c-1.3,0.3-2.7,0.2-4.1,0.2
		c-2-0.1-3.9,0.1-5.5,1.6c-0.8,0.7-1.9,0.3-2.2-0.7c-0.7-2.6-1.2-5.2-0.9-8c0.6-4.9,3.8-8,8.8-8.2c0.3,0,0.6-0.2,0.8-0.4
		c1.1-1.5,2.1-3.1,3.1-4.6C42.5,15.1,43.5,13.6,44.6,12z M49.1,19.5c0.9-1,1.7-2,2.5-3c2.3-2.8,4.5-5.5,6.8-8.3
		c1.3-1.6,0.9-3.9-0.9-4.9c-1.5-0.9-3.4-0.4-4.5,1.1c-2.6,3.8-5.1,7.7-7.7,11.5c-0.1,0.1-0.2,0.3-0.3,0.5
		C46.4,17.4,47.7,18.4,49.1,19.5z M32,34.9c1-0.3,1.9-0.6,2.8-0.7c1.3-0.1,2.7-0.1,4-0.1c1.1,0,2.3,0.1,3.3-0.6
		c1.4-0.9,2-2.7,1.7-4.5c-0.1-0.6-0.4-1.1-0.9-1.5c-1.1-0.7-2.2-1.5-3.2-2.4c-0.9-0.7-1.7-0.9-2.8-0.7c-2.4,0.5-4.2,1.8-4.8,4.3
		C31.4,30.8,31.6,32.9,32,34.9z M46.7,68.1c0.2-1.7-0.3-2.2-1.9-2.2c-6.3,0-12.5,0-18.8,0c-1.6,0-2.1,0.6-1.8,2.2
		C31.7,68.1,39.2,68.1,46.7,68.1z M37.3,56.2c-1.3,0-2.5,0-3.8,0c-0.5,2.2-1.1,4.5-1.6,6.8c2.4,0,4.6,0,7,0
		C38.4,60.7,37.9,58.5,37.3,56.2z M44.4,25.3c1-1.2,2-2.4,3-3.6c-1.3-1-2.6-1.9-3.9-2.9c-0.9,1.3-1.7,2.6-2.6,3.9
		C42,23.5,43.1,24.4,44.4,25.3z"/>
	<path d="M17,42.7c0,0.8-0.6,1.4-1.4,1.4c-0.7,0-1.3-0.6-1.4-1.4c0-0.8,0.6-1.4,1.4-1.4C16.4,41.3,17,41.9,17,42.7z"/>
</g>
</svg>
