<?xml version="1.0" encoding="utf-8"?>
<!-- Generator: Adobe Illustrator 23.0.2, SVG Export Plug-In . SVG Version: 6.00 Build 0)  -->
<svg version="1.1" id="Réteg_1" xmlns="http://www.w3.org/2000/svg" xmlns:xlink="http://www.w3.org/1999/xlink" x="0px" y="0px"
	 viewBox="0 0 70.9 70.9" style="enable-background:new 0 0 70.9 70.9;" xml:space="preserve">
<g>
	<path d="M70.9,53.4c-0.5,1.1-1.2,2-2.4,2.3c0,0,0,0-0.1,0c-1.1-0.2-1.5,0.6-1.7,1.5c-0.1,0.2-0.3,0.5-0.3,0.7c0,0.2,0,0.5,0.1,0.7
		c1.3,1.6,1.3,3.2-0.2,4.7c-0.5,0.5-1,1.1-1.6,1.6c-1.3,1.2-3.1,1.3-4.4,0.1c-0.4-0.3-0.6-0.4-1-0.1c-0.1,0.1-0.2,0.1-0.3,0.1
		c-1,0.3-1.7,0.7-1.8,2c-0.1,1.4-1.5,2.3-2.9,2.3c-0.8,0-1.6,0-2.4,0c-1.9,0-3.2-1.2-3.3-3.1c0-0.4-0.2-0.6-0.6-0.8
		c-0.6-0.2-1.3-0.5-2-0.8c-0.7,0.8-1.7,1.4-2.8,1.2c-0.6-0.1-1.2-0.3-1.6-0.6c-0.8-0.7-1.6-1.5-2.3-2.3c-1.1-1.2-1-2.9,0.2-4.1
		c0.3-0.3,0.3-0.5,0.1-0.9c-0.3-0.6-0.5-1.3-0.8-2c-0.2,0-0.5,0-0.7,0c-3.6,0-7.3,0-10.9,0c-0.7,0-1.3-0.4-1.4-1.1
		c-0.1-0.7,0.2-1.4,0.8-1.6c0.3-0.1,0.6-0.1,0.9-0.1c2.3,0,4.6,0,6.9,0c0.3,0,0.5,0,0.9,0c0-0.8,0-1.6,0-2.4c0-2.2,1.1-3.4,3.3-3.6
		c0.2,0,0.5-0.2,0.5-0.4c0.3-0.7,0.6-1.4,0.9-2.1c-0.6-0.6-1.2-1.4-1.2-2.4c0-0.9,0.2-1.7,0.9-2.4c0.6-0.6,1.2-1.2,1.8-1.8
		c1.3-1.3,3.1-1.3,4.5,0c0.3,0.3,0.5,0.3,0.8,0.1c0.7-0.3,1.3-0.6,1.9-0.8c0.2-0.7,0.2-1.3,0.4-1.9c0.5-1.1,1.4-1.7,2.5-1.8
		c1-0.1,2.1-0.1,3.1,0c1.7,0.2,2.8,1.4,2.8,3c0,0.5,0.2,0.7,0.6,0.8c0.1,0,0.2,0.1,0.3,0.1c0.9,0.5,1.8,0.8,2.7-0.1
		c0.4-0.4,1.2-0.4,1.9-0.6c0-4.5,0-9.1,0-13.8c-20,0-40,0-60.1,0c0,0.3,0,0.5,0,0.8c0,8,0,16.1,0,24.1c0,1.1,0.2,2.2,0.8,3.2
		C4.3,52.3,5.4,53,6.9,53c2.6,0,5.1,0,7.7,0c1.1,0,1.8,0.9,1.4,1.9c-0.2,0.6-0.7,0.9-1.3,0.9c-2.9,0-5.8,0.1-8.7,0
		c-2.4-0.1-4.8-2.1-5.6-4.8C0.2,50.1,0,49.3,0,48.4C0,35.3,0,22.2,0,9c0-3.3,2-6.3,4.9-7.1c0.5-0.1,1-0.2,1.6-0.2
		c17.6,0,35.2,0,52.9,0c2.6,0,5,1.8,6,4.7c0.3,1.1,0.5,2.3,0.5,3.4c0,9.5,0,19,0,28.4c0,0.5,0.1,0.9,0.5,1.3
		c1.4,1.4,1.5,3.1,0.1,4.7c-0.1,0.2-0.1,0.5-0.1,0.7c0,0.1,0.1,0.3,0.2,0.4c0.3,1.1,0.8,1.8,2.1,1.9c1.2,0.1,1.8,1.2,2.2,2.2
		C70.9,50.7,70.9,52.1,70.9,53.4z M62.9,20.1c0-0.1,0.1-0.1,0.1-0.2c0-3.7,0.1-7.5,0-11.2c-0.1-2.5-1.9-4.2-4.4-4.2
		c-12.2,0-24.4,0-36.7,0c-5,0-9.9,0-14.9,0c-1.6,0-2.7,0.7-3.5,2.1C3,7.4,2.8,8.4,2.8,9.5c0,3.3,0,6.6,0,9.9c0,0.2,0,0.4,0,0.7
		C22.9,20.1,42.9,20.1,62.9,20.1z M64.7,41.9c-0.1-0.1-0.1-0.3-0.2-0.3c-0.3-0.3-0.5-0.5-0.8-0.8c-1.1-1.1-1.1-1.1-2.2,0
		c-0.8,0.8-1.3,0.8-2.3,0.3c-1-0.5-2.1-0.9-3.2-1.3c-1.1-0.4-1.4-0.7-1.4-1.9c0-1.5,0-1.5-1.4-1.5c-1.7,0-1.7,0-1.7,1.6
		c0,1-0.3,1.4-1.4,1.7c-1.1,0.4-2.1,0.8-3.1,1.3c-1.1,0.5-1.5,0.5-2.4-0.3c-1.2-1.2-0.9-1.2-2.1,0c-1.1,1.1-1.1,1.1,0,2.3
		c0.7,0.8,0.8,1.2,0.3,2.2c-0.5,1-1,2-1.3,3.1c-0.4,1.2-0.7,1.5-2,1.5c-1.4,0-1.4,0-1.4,1.4c0,1.7,0,1.7,1.7,1.7
		c1,0,1.3,0.4,1.7,1.3c0.4,1.1,0.8,2.2,1.3,3.2c0.5,1,0.5,1.5-0.3,2.3c-1.2,1.2-1.2,0.9,0,2.1c1.2,1.2,1.2,1.2,2.4,0
		c0.7-0.7,1.2-0.7,2.1-0.3c1.1,0.5,2.1,1,3.2,1.3c1.1,0.4,1.4,0.7,1.4,1.9c0,1.7-0.3,1.5,1.5,1.5c1.8,0,1.6,0.2,1.6-1.6
		c0-1.2,0.3-1.5,1.4-1.9c1-0.3,2.1-0.8,3-1.2c1.1-0.6,1.5-0.6,2.4,0.3c1.1,1.1,1.1,1.1,2.1,0c1.2-1.2,1.2-1.2,0-2.4
		c-0.7-0.8-0.7-1.2-0.3-2.2c0.5-1,0.9-2,1.3-3.1c0.4-1.2,0.7-1.4,1.9-1.4c1.7,0,1.5,0.1,1.5-1.5c0-1.6,0-1.6-1.6-1.6
		c0,0-0.1,0-0.1,0c-0.9,0-1.3-0.4-1.6-1.2c-0.3-1-0.7-2-1.1-2.9c-0.9-1.8-0.9-1.8,0.5-3.2c0.1-0.1,0.2-0.2,0.3-0.3
		C64.5,42.1,64.6,42,64.7,41.9z"/>
	<path d="M31.2,37.9c-1.1-1.3-2.3-2.5-3.4-3.8c-0.4-0.5-0.5-1.1-0.2-1.7c0.4-0.6,0.9-0.8,1.5-0.6c0.3,0.1,0.6,0.3,0.8,0.6
		c1.2,1.3,2.4,2.7,3.6,4.1c0.9,1,0.9,1.9,0,2.9c-1.2,1.4-2.4,2.8-3.7,4.1c-0.7,0.7-1.5,0.8-2.1,0.2c-0.6-0.6-0.6-1.4,0-2.1
		C29,40.4,30.1,39.2,31.2,37.9z"/>
	<path d="M11,37.9c1.1,1.3,2.2,2.5,3.3,3.7c0.8,0.9,0.5,2.2-0.7,2.4c-0.4,0.1-1-0.1-1.3-0.4c-1.4-1.4-2.7-2.9-4-4.4
		c-0.7-0.8-0.6-1.7,0-2.5c1.3-1.5,2.6-2.9,3.9-4.3c0.6-0.6,1.5-0.7,2-0.2c0.6,0.5,0.6,1.4,0.1,2C13.2,35.4,12.1,36.7,11,37.9z"/>
	<path d="M19.7,45.1c-0.9,0-1.6-0.8-1.4-1.7c0.9-3.8,1.8-7.7,2.7-11.5c0.2-0.9,0.9-1.3,1.7-1.2c0.8,0.2,1.3,0.9,1,1.8
		c-0.9,3.8-1.8,7.6-2.7,11.4C20.9,44.7,20.4,45.1,19.7,45.1z"/>
	<path d="M21,55.8c-0.8,0-1.4-0.6-1.4-1.4c0-0.8,0.6-1.4,1.4-1.4c0.8,0,1.5,0.6,1.5,1.4C22.4,55.1,21.7,55.8,21,55.8z"/>
	<path d="M47.7,17c-2,0-4.1,0-6.1,0c-2.7,0-4.8-2.1-4.8-4.7c0-2.6,2.1-4.7,4.8-4.7c4.1,0,8.1,0,12.2,0c2.7,0,4.8,2.1,4.8,4.7
		c0,2.6-2.1,4.7-4.8,4.7C51.8,17,49.7,17,47.7,17z M47.7,10.5C47.7,10.5,47.7,10.5,47.7,10.5c-2.1,0-4.1,0-6.2,0
		c-1.3,0-2.1,1.1-1.8,2.3c0.2,0.8,0.8,1.4,1.7,1.4c4.2,0,8.4,0,12.6,0c0.2,0,0.5-0.1,0.7-0.2c0.7-0.3,1.2-1.2,1.1-1.9
		c-0.2-0.9-0.8-1.6-1.7-1.6C51.9,10.5,49.8,10.5,47.7,10.5z"/>
	<path d="M29.8,12.3c0,2.6-2.1,4.7-4.7,4.7c-2.5,0-4.7-2.1-4.7-4.7c0-2.6,2.1-4.7,4.7-4.7C27.7,7.6,29.8,9.7,29.8,12.3z M23.2,12.4
		c0,1,0.8,1.8,1.8,1.8c1,0,1.9-0.9,1.9-1.9c0-1-0.9-1.8-1.9-1.8C24,10.5,23.2,11.3,23.2,12.4z"/>
	<path d="M12.9,17c-2.6,0-4.7-2.1-4.7-4.7c0-2.6,2.1-4.7,4.7-4.7c2.6,0,4.7,2.1,4.7,4.7C17.7,14.9,15.5,17,12.9,17z M13,10.5
		c-1.1,0-1.9,0.8-1.9,1.8c0,1,0.8,1.8,1.8,1.9c1,0,1.9-0.8,1.9-1.9C14.8,11.3,14,10.5,13,10.5z"/>
	<path d="M53,59.9c-4.7,0-8.5-3.9-8.5-8.6c0-4.7,3.9-8.5,8.6-8.5c4.7,0,8.6,3.9,8.5,8.6C61.6,56.1,57.7,59.9,53,59.9z M58.7,51.4
		c0-3.1-2.5-5.7-5.6-5.8c-3.2,0-5.8,2.5-5.8,5.5c0,3.3,2.4,5.8,5.6,5.9C56.1,57.1,58.7,54.6,58.7,51.4z"/>
</g>
</svg>
